<svg width="127" height="18" viewBox="0 0 127 18" fill="none" xmlns="http://www.w3.org/2000/svg">
<path d="M34.4947 14.2623C37.1005 14.2623 39.2019 12.8025 39.9328 10.4679H36.3723C36.0287 11.0664 35.3307 11.4273 34.4947 11.4273C33.3645 11.4273 32.608 10.8207 32.375 9.6471H40.0863C40.1329 9.3303 40.1604 9.0225 40.1604 8.7138C40.1604 5.7123 37.8424 3.3588 34.4947 3.3588C31.2347 3.3588 28.8528 5.6664 28.8528 8.8029C28.8528 11.9286 31.2539 14.2623 34.4947 14.2623ZM36.6363 7.695H32.4371C32.7267 6.6789 33.4513 6.1209 34.4947 6.1209C35.5737 6.1209 36.322 6.6726 36.6363 7.6959V7.695ZM46.6374 14.2614C47.8434 14.2614 48.9215 13.8708 49.7712 13.1922L50.0782 13.9158H52.8439V3.6837H50.1769L49.8114 4.4757C48.9526 3.7782 47.8608 3.3759 46.6374 3.3759C43.4614 3.3759 41.191 5.6304 41.191 8.7993C41.191 11.979 43.4614 14.2623 46.6374 14.2623V14.2614ZM47.1161 11.1411C45.7758 11.1411 44.7908 10.1439 44.7908 8.8074C44.7908 7.4799 45.7675 6.4827 47.1161 6.4827C48.4556 6.4827 49.4405 7.4799 49.4405 8.8074C49.4405 10.1439 48.4556 11.1411 47.1161 11.1411ZM59.1062 14.2614C61.8655 14.2614 63.6974 12.8628 63.6974 10.7244C63.6974 8.1297 61.5164 7.794 59.8755 7.5069C58.8887 7.3332 58.0938 7.1973 58.0938 6.6159C58.0938 6.1416 58.4794 5.8617 59.0532 5.8617C59.7019 5.8617 60.1469 6.165 60.1469 6.8184H63.4973C63.4571 4.7457 61.743 3.3597 59.0971 3.3597C56.4364 3.3597 54.6621 4.6827 54.6621 6.7347C54.6621 9.216 56.7973 9.6948 58.4081 9.9513C59.4059 10.1142 60.1916 10.2825 60.1916 10.8729C60.1916 11.4012 59.6955 11.6649 59.172 11.6649C58.494 11.6649 57.9659 11.3202 57.9659 10.5723H54.5214C54.5543 12.789 56.2747 14.2623 59.1062 14.2623V14.2614ZM66.5069 17.7336C69.1894 17.7336 70.4759 16.6023 71.8765 13.4712L76.2293 3.6945H72.3864L70.3315 9.3312L68.1278 3.6945H64.2401L68.5325 13.0815C68.0483 14.3541 67.6344 14.7051 66.2666 14.7051H65.2817V17.7336H66.5069ZM83.4134 14.2614C86.6113 14.2614 88.8708 11.9979 88.8708 8.8182C88.8708 5.6385 86.6122 3.375 83.4134 3.375C82.503 3.36801 81.6089 3.61245 80.8323 4.0806V0H77.2964V13.9266H79.9433L80.2814 13.167C81.1247 13.8609 82.2019 14.2614 83.4134 14.2614ZM82.9356 11.1411C81.5952 11.1411 80.6103 10.1439 80.6103 8.8191C80.6103 7.4817 81.5952 6.4845 82.9356 6.4845C84.275 6.4845 85.26 7.4817 85.26 8.8182C85.26 10.1439 84.2668 11.1402 82.9356 11.1402V11.1411ZM95.3597 14.2614C96.5657 14.2614 97.6438 13.8708 98.4936 13.1922L98.8005 13.9158H101.566V3.6837H98.9001L98.5338 4.4757C97.6758 3.7782 96.5831 3.3759 95.3597 3.3759C92.1838 3.3759 89.9142 5.6304 89.9142 8.7993C89.9142 11.979 92.1838 14.2623 95.3597 14.2623V14.2614ZM95.8384 11.1411C94.4981 11.1411 93.5131 10.1439 93.5131 8.8074C93.5131 7.4799 94.4908 6.4827 95.8384 6.4827C97.1788 6.4827 98.1637 7.4799 98.1637 8.8074C98.1637 10.1439 97.1788 11.1411 95.8384 11.1411ZM107.399 13.9266V8.4627C107.399 7.1604 108.04 6.3927 109.156 6.3927C110.057 6.3927 110.511 6.984 110.511 8.1747V13.9257H114.088V7.6887C114.088 5.0814 112.505 3.393 110.093 3.393C108.749 3.393 107.596 3.9015 106.822 4.7502L106.331 3.6954H103.821V13.9275H107.399V13.9266ZM119.96 13.9266V9.5994L122.562 13.9266H126.78L123.215 8.5716L126.452 3.6945H122.434L119.96 7.7031V0H116.382V13.9266H119.96Z" fill="#2D314D"/>
<path fill-rule="evenodd" clip-rule="evenodd" d="M9.86945 0L0 17.7336H5.46922L15.3396 0H9.86945Z" fill="url(#paint0_linear_4_101)"/>
<path opacity="0.5" fill-rule="evenodd" clip-rule="evenodd" d="M16.6023 0L6.73193 17.7336H12.2012L22.0715 0H16.6023Z" fill="url(#paint1_linear_4_101)"/>
<path opacity="0.15" fill-rule="evenodd" clip-rule="evenodd" d="M23.3342 0L13.4647 17.7336H18.9339L28.8034 0H23.3342Z" fill="url(#paint2_linear_4_101)"/>
<defs>
<linearGradient id="paint0_linear_4_101" x1="11.0744" y1="-6.42573e-07" x2="0.668125" y2="16.4584" gradientUnits="userSpaceOnUse">
<stop stop-color="#33D35E"/>
<stop offset="1" stop-color="#2AB6D9"/>
</linearGradient>
<linearGradient id="paint1_linear_4_101" x1="17.8063" y1="-6.42573e-07" x2="7.40006" y2="16.4584" gradientUnits="userSpaceOnUse">
<stop stop-color="#33D35E"/>
<stop offset="1" stop-color="#2AB6D9"/>
</linearGradient>
<linearGradient id="paint2_linear_4_101" x1="24.5385" y1="-6.42573e-07" x2="14.1319" y2="16.4579" gradientUnits="userSpaceOnUse">
<stop stop-color="#33D35E"/>
<stop offset="1" stop-color="#2AB6D9"/>
</linearGradient>
</defs>
</svg>
