<svg width="127" height="18" viewBox="0 0 127 18" fill="none" xmlns="http://www.w3.org/2000/svg">
<path d="M34.4949 14.2623C37.1007 14.2623 39.2021 12.8025 39.933 10.4679H36.3725C36.0289 11.0664 35.3309 11.4273 34.4949 11.4273C33.3647 11.4273 32.6082 10.8207 32.3752 9.6471H40.0865C40.1331 9.3303 40.1606 9.0225 40.1606 8.7138C40.1606 5.7123 37.8426 3.3588 34.4949 3.3588C31.2349 3.3588 28.853 5.6664 28.853 8.8029C28.853 11.9286 31.2541 14.2623 34.4949 14.2623ZM36.6365 7.695H32.4373C32.7269 6.6789 33.4515 6.1209 34.4949 6.1209C35.5739 6.1209 36.3222 6.6726 36.6365 7.6959V7.695ZM46.6376 14.2614C47.8436 14.2614 48.9217 13.8708 49.7714 13.1922L50.0784 13.9158H52.8441V3.6837H50.1771L49.8116 4.4757C48.9528 3.7782 47.861 3.3759 46.6376 3.3759C43.4616 3.3759 41.1912 5.6304 41.1912 8.7993C41.1912 11.979 43.4616 14.2623 46.6376 14.2623V14.2614ZM47.1163 11.1411C45.776 11.1411 44.791 10.1439 44.791 8.8074C44.791 7.4799 45.7677 6.4827 47.1163 6.4827C48.4558 6.4827 49.4407 7.4799 49.4407 8.8074C49.4407 10.1439 48.4558 11.1411 47.1163 11.1411ZM59.1064 14.2614C61.8657 14.2614 63.6976 12.8628 63.6976 10.7244C63.6976 8.1297 61.5166 7.794 59.8757 7.5069C58.8889 7.3332 58.094 7.1973 58.094 6.6159C58.094 6.1416 58.4796 5.8617 59.0534 5.8617C59.7021 5.8617 60.1471 6.165 60.1471 6.8184H63.4975C63.4573 4.7457 61.7432 3.3597 59.0973 3.3597C56.4366 3.3597 54.6623 4.6827 54.6623 6.7347C54.6623 9.216 56.7975 9.6948 58.4083 9.9513C59.4061 10.1142 60.1918 10.2825 60.1918 10.8729C60.1918 11.4012 59.6957 11.6649 59.1722 11.6649C58.4942 11.6649 57.9661 11.3202 57.9661 10.5723H54.5216C54.5545 12.789 56.2749 14.2623 59.1064 14.2623V14.2614ZM66.5071 17.7336C69.1896 17.7336 70.4761 16.6023 71.8767 13.4712L76.2295 3.6945H72.3866L70.3317 9.3312L68.128 3.6945H64.2403L68.5327 13.0815C68.0485 14.3541 67.6346 14.7051 66.2668 14.7051H65.2819V17.7336H66.5071ZM83.4136 14.2614C86.6115 14.2614 88.871 11.9979 88.871 8.8182C88.871 5.6385 86.6124 3.375 83.4136 3.375C82.5032 3.36801 81.6091 3.61245 80.8325 4.0806V0H77.2966V13.9266H79.9435L80.2816 13.167C81.1249 13.8609 82.2021 14.2614 83.4136 14.2614ZM82.9358 11.1411C81.5954 11.1411 80.6105 10.1439 80.6105 8.8191C80.6105 7.4817 81.5954 6.4845 82.9358 6.4845C84.2752 6.4845 85.2602 7.4817 85.2602 8.8182C85.2602 10.1439 84.267 11.1402 82.9358 11.1402V11.1411ZM95.3599 14.2614C96.5659 14.2614 97.644 13.8708 98.4938 13.1922L98.8007 13.9158H101.566V3.6837H98.9003L98.534 4.4757C97.676 3.7782 96.5833 3.3759 95.3599 3.3759C92.184 3.3759 89.9144 5.6304 89.9144 8.7993C89.9144 11.979 92.184 14.2623 95.3599 14.2623V14.2614ZM95.8386 11.1411C94.4983 11.1411 93.5133 10.1439 93.5133 8.8074C93.5133 7.4799 94.491 6.4827 95.8386 6.4827C97.179 6.4827 98.1639 7.4799 98.1639 8.8074C98.1639 10.1439 97.179 11.1411 95.8386 11.1411ZM107.399 13.9266V8.4627C107.399 7.1604 108.04 6.3927 109.156 6.3927C110.057 6.3927 110.511 6.984 110.511 8.1747V13.9257H114.088V7.6887C114.088 5.0814 112.505 3.393 110.093 3.393C108.749 3.393 107.596 3.9015 106.822 4.7502L106.331 3.6954H103.821V13.9275H107.399V13.9266ZM119.96 13.9266V9.5994L122.562 13.9266H126.78L123.215 8.5716L126.452 3.6945H122.434L119.96 7.7031V0H116.382V13.9266H119.96Z" fill="white"/>
<path fill-rule="evenodd" clip-rule="evenodd" d="M9.86945 0L0 17.7336H5.46922L15.3396 0H9.86945Z" fill="url(#paint0_linear_13_279)"/>
<path opacity="0.5" fill-rule="evenodd" clip-rule="evenodd" d="M16.6023 0L6.73193 17.7336H12.2012L22.0715 0H16.6023Z" fill="url(#paint1_linear_13_279)"/>
<path opacity="0.15" fill-rule="evenodd" clip-rule="evenodd" d="M23.3343 0L13.4648 17.7336H18.934L28.8035 0H23.3343Z" fill="url(#paint2_linear_13_279)"/>
<defs>
<linearGradient id="paint0_linear_13_279" x1="11.0744" y1="-1.06203e-06" x2="0.668124" y2="16.4584" gradientUnits="userSpaceOnUse">
<stop stop-color="#33D35E"/>
<stop offset="1" stop-color="#2AB6D9"/>
</linearGradient>
<linearGradient id="paint1_linear_13_279" x1="17.8063" y1="-2.41856e-07" x2="7.40006" y2="16.4584" gradientUnits="userSpaceOnUse">
<stop stop-color="#33D35E"/>
<stop offset="1" stop-color="#2AB6D9"/>
</linearGradient>
<linearGradient id="paint2_linear_13_279" x1="24.5386" y1="-7.77106e-07" x2="14.132" y2="16.4579" gradientUnits="userSpaceOnUse">
<stop stop-color="#33D35E"/>
<stop offset="1" stop-color="#2AB6D9"/>
</linearGradient>
</defs>
</svg>
